HIERARCHY
ROOT Hips
{
	OFFSET 0.000000 0.000000 0.000000 
	CHANNELS 6 Xposition Yposition Zposition Zrotation Yrotation Xrotation
	JOINT LeftUpLeg
	{
		OFFSET 1.363060 -1.794630 0.839290 
		CHANNELS 3 Zrotation Yrotation Xrotation
		JOINT LeftLeg
		{
			OFFSET 2.448110 -6.726130 0.000000 
			CHANNELS 3 Zrotation Yrotation Xrotation
			JOINT LeftFoot
			{
				OFFSET 2.562200 -7.039590 0.000000 
				CHANNELS 3 Zrotation Yrotation Xrotation
				JOINT LeftToeBase
				{
					OFFSET 0.157640 -0.433110 2.322550 
					CHANNELS 3 Zrotation Yrotation Xrotation
					End Site
					{
						OFFSET 0.000000 0.000000 0.000000 
					}
				}
			}
		}
	}
	JOINT RightUpLeg
	{
		OFFSET -1.305520 -1.794630 0.839290 
		CHANNELS 3 Zrotation Yrotation Xrotation
		JOINT RightLeg
		{
			OFFSET -2.542530 -6.985550 0.000000 
			CHANNELS 3 Zrotation Yrotation Xrotation
			JOINT RightFoot
			{
				OFFSET -2.568260 -7.056230 0.000000 
				CHANNELS 3 Zrotation Yrotation Xrotation
				JOINT RightToeBase
				{
					OFFSET -0.164730 -0.452590 2.363150 
					CHANNELS 3 Zrotation Yrotation Xrotation
					End Site
					{
						OFFSET 0.000000 0.000000 0.000000 
					}
				}
			}
		}
	}
	JOINT Spine
	{
		OFFSET 0.028270 2.035590 -0.193380 
		CHANNELS 3 Zrotation Yrotation Xrotation
		JOINT Spine1
		{
			OFFSET 0.056720 2.048850 -0.042750 
			CHANNELS 3 Zrotation Yrotation Xrotation
			JOINT Neck1
			{
				OFFSET -0.054170 1.746240 0.172020 
				CHANNELS 3 Zrotation Yrotation Xrotation
				JOINT Head
				{
					OFFSET 0.104070 1.761360 -0.123970 
					CHANNELS 3 Zrotation Yrotation Xrotation
					End Site
					{
						OFFSET 0.000000 0.000000 0.000000 
					}
				}
			}
			JOINT LeftArm
			{
				OFFSET 3.362410 1.200890 -0.311210 
				CHANNELS 3 Zrotation Yrotation Xrotation
				JOINT LeftForeArm
				{
					OFFSET 4.983000 -0.000000 -0.000000 
					CHANNELS 3 Zrotation Yrotation Xrotation
					JOINT LeftHand
					{
						OFFSET 3.483560 -0.000000 -0.000000 
						CHANNELS 3 Zrotation Yrotation Xrotation
						JOINT LeftHandIndex1
						{
							OFFSET 0.715260 -0.000000 -0.000000 
							CHANNELS 3 Zrotation Yrotation Xrotation
							End Site
							{
								OFFSET 0.000000 0.000000 0.000000 
							}
						}
					}
				}
			}
			JOINT RightArm
			{
				OFFSET -3.136600 1.374050 -0.404650 
				CHANNELS 3 Zrotation Yrotation Xrotation
				JOINT RightForeArm
				{
					OFFSET -5.241900 -0.000000 -0.000000 
					CHANNELS 3 Zrotation Yrotation Xrotation
					JOINT RightHand
					{
						OFFSET -3.444170 -0.000000 -0.000000 
						CHANNELS 3 Zrotation Yrotation Xrotation
						JOINT RightHandIndex1
						{
							OFFSET -0.622530 -0.000000 -0.000000 
							CHANNELS 3 Zrotation Yrotation Xrotation
							End Site
							{
								OFFSET 0.000000 0.000000 0.000000 
							}
						}
					}
				}
			}
		}
	}
}
MOTION
Frames: 9
Frame Time: 0.041667
7.319388 16.818315 -10.372167 -9.164151 55.758678 -16.167846 -23.213832 4.854853 -11.800081 1.506094 7.670545 21.896252 0.758288 -8.827195 4.479510 0.090200 1.937000 5.331700 36.578901 5.757583 -5.252626 -16.905909 -20.118222 80.087551 0.134897 -2.451333 2.131338 -0.000100 0.071800 -0.197300 1.190076 0.479182 -0.902481 -3.941752 0.187688 -2.084821 8.526882 -1.796849 4.585532 1.330400 -0.780800 0.873300 -80.885117 4.233523 -24.881104 0.017135 -3.955115 -0.468984 -1.019055 0.456601 19.955502 -7.125000 0.000000 0.000000 81.152263 -10.795841 18.113702 -10.792069 21.623158 -2.731751 0.743963 -0.383674 8.618043 7.125000 0.000000 0.000000 
7.403314 16.842323 -10.351618 -8.639638 55.584425 -15.842394 -23.612104 5.162128 -10.908254 1.408858 7.416334 21.181612 0.741745 -8.238021 4.722361 0.107000 2.109100 5.807400 36.074089 6.151121 -7.431475 -18.069497 -20.372679 83.456960 0.050169 -1.623521 1.515470 -0.009100 0.616900 -1.695200 1.172509 0.416768 -0.876176 -3.812317 0.163187 -2.170097 8.506993 -1.804808 4.553285 1.318900 -0.787500 0.861600 -80.817918 3.874596 -25.178665 0.039172 -3.952046 -0.476514 -1.015389 0.483633 20.523283 -7.125000 0.000000 0.000000 81.161163 -10.719559 18.070313 -10.903625 21.738588 -2.770724 0.743310 -0.395590 8.538439 7.125000 0.000000 0.000000 
7.486833 16.866636 -10.332391 -8.453853 55.329025 -15.763705 -23.783295 5.449653 -10.123024 1.334085 7.204656 20.592988 0.723035 -7.710391 4.865593 0.116000 2.196000 6.047700 35.791997 6.580257 -9.647600 -19.204067 -20.569601 86.710223 -0.012509 -1.011899 0.890851 -0.034600 1.200300 -3.300100 1.170764 0.385893 -0.846561 -3.743023 0.154375 -2.217888 8.473003 -1.824270 4.532525 1.300500 -0.799400 0.854700 -80.756171 3.494674 -25.430710 0.071242 -3.962714 -0.483941 -1.009954 0.509467 20.962567 -7.125000 0.000000 0.000000 81.157112 -10.658728 18.071757 -11.013317 21.858444 -2.806870 0.742137 -0.400619 8.413385 7.125000 0.000000 0.000000 
7.570658 16.891661 -10.315097 -8.540922 54.985730 -15.870352 -23.767388 5.736608 -9.438218 1.277576 7.030201 20.113328 0.702702 -7.241210 4.916876 0.117300 2.207700 6.080100 35.705576 7.080492 -11.886401 -20.306783 -20.714080 89.848739 -0.047689 -0.682513 0.224890 -0.077700 1.797900 -4.947500 1.181528 0.386139 -0.812885 -3.732686 0.161269 -2.223591 8.425268 -1.847704 4.521442 1.274400 -0.812700 0.850100 -80.706865 3.104581 -25.668337 0.117945 -3.991147 -0.491155 -1.001759 0.533572 21.284569 -7.125000 0.000000 0.000000 81.134601 -10.595467 18.099943 -11.110530 21.969508 -2.836776 0.740296 -0.398919 8.255693 7.125000 0.000000 0.000000 
7.654787 16.917704 -10.299838 -8.783975 54.573634 -16.067018 -23.640253 6.043031 -8.836366 1.232005 6.878421 19.698621 0.681550 -6.818978 4.900855 0.111900 2.157300 5.940600 35.740908 7.665061 -14.145005 -21.379372 -20.810115 92.884637 -0.054596 -0.646722 -0.493822 -0.137700 2.391400 -6.588700 1.200127 0.408509 -0.779847 -3.760452 0.179120 -2.210539 8.367180 -1.866504 4.518273 1.243000 -0.823700 0.844900 -80.677782 2.730922 -25.901582 0.181576 -4.041470 -0.497768 -0.990759 0.553879 21.505988 -7.125000 0.000000 0.000000 81.091552 -10.526388 18.131398 -11.180770 22.051015 -2.855544 0.737157 -0.392305 8.071959 7.125000 0.000000 0.000000 
7.738612 16.944764 -10.286410 -9.058392 54.119015 -16.254568 -23.486407 6.370024 -8.281931 1.188742 6.731139 19.293845 0.659433 -6.416762 4.849431 0.102000 2.059000 5.668700 35.812636 8.337504 -16.417998 -22.425457 -20.860555 95.835784 -0.037897 -0.853554 -1.285819 -0.213400 2.974100 -8.206700 1.220680 0.444104 -0.750951 -3.802656 0.203266 -2.198161 8.306044 -1.878777 4.526118 1.209800 -0.830800 0.841700 -80.672708 2.405204 -26.139149 0.271745 -4.128015 -0.503886 -0.975712 0.569218 21.650822 -7.125000 0.000000 0.000000 81.035188 -10.445316 18.143095 -11.216971 22.092016 -2.862117 0.733772 -0.382333 7.881431 7.125000 0.000000 0.000000 
7.821521 16.972332 -10.273999 -9.268420 53.652017 -16.367977 -23.372808 6.711825 -7.728916 1.140573 6.569363 18.844056 0.635446 -6.003863 4.792278 0.090200 1.936700 5.330700 35.847790 9.086085 -18.694601 -23.446724 -20.867024 98.712361 0.001645 -1.272879 -2.102979 -0.291900 3.474600 -9.603000 1.238946 0.481286 -0.728193 -3.836427 0.227975 -2.201434 8.248741 -1.880090 4.545760 1.179300 -0.832000 0.839500 -80.689502 2.142779 -26.391685 0.385260 -4.246124 -0.509619 -0.954769 0.582786 21.750248 -7.125000 0.000000 0.000000 80.971915 -10.357315 18.128321 -11.220732 22.092606 -2.857561 0.730268 -0.371217 7.700237 7.125000 0.000000 0.000000 
7.903209 17.000409 -10.261995 -9.367231 53.201790 -16.383214 -23.338251 7.058500 -7.135601 1.082278 6.378261 18.307223 0.608373 -5.552740 4.756235 0.078900 1.812400 4.987500 35.797058 9.881105 -20.955869 -24.440822 -20.830570 101.514292 0.056037 -1.806161 -2.875263 -0.363300 3.872000 -10.717000 1.252174 0.509481 -0.711069 -3.851039 0.247859 -2.222508 8.196961 -1.873498 4.580571 1.152000 -0.828600 0.842300 -80.720568 1.936201 -26.661737 0.513354 -4.383460 -0.514715 -0.928272 0.595703 21.840512 -7.125000 0.000000 0.000000 80.910639 -10.261089 18.076553 -11.195780 22.056446 -2.844293 0.727647 -0.360734 7.555051 7.125000 0.000000 0.000000 
7.983982 17.028893 -10.249889 -9.337283 52.788944 -16.295897 -23.402778 7.395403 -6.476259 1.011592 6.147286 17.655101 0.577038 -5.048397 4.751691 0.068300 1.685900 4.638300 35.632221 10.698677 -23.188403 -25.402630 -20.753447 104.232536 0.115137 -2.345100 -3.530898 -0.419400 4.156500 -11.517400 1.258672 0.523342 -0.698083 -3.844542 0.260692 -2.254946 8.151403 -1.861387 4.629442 1.128200 -0.821500 0.850200 -80.753634 1.769621 -26.944414 0.640323 -4.519433 -0.518861 -0.899452 0.607057 21.947432 -7.125000 0.000000 0.000000 80.862562 -10.159571 17.973691 -11.150227 21.993150 -2.825727 0.725481 -0.352904 7.478151 7.125000 0.000000 0.000000 
